<?xml version="1.0" encoding="utf-8"?>
<svg id="master-artboard" viewBox="0 0 392.36370849609375 352.54547119140625" version="1.1" xmlns="http://www.w3.org/2000/svg" x="0px" y="0px" style="enable-background:new 0 0 1400 980;" width="392.36370849609375px" height="352.54547119140625px"><rect id="ee-background" x="0" y="0" width="392.36370849609375" height="352.54547119140625" style="fill: white; fill-opacity: 0; pointer-events: none;"/>

<path class="st0" d="M377.4,626.9c-14-13.9-38.2-35.7-59.1-42.6c-1-6.3-3.1-12.9-7.2-19.1c-7.8-11.7-20.7-18.8-38.2-21.1&#10;&#9;&#9;&#9;c-0.7-0.1-1.4-0.1-2.1,0c-17.6,2.3-30.4,9.4-38.2,21.1c-4.7,7.1-6.8,14.9-7.6,22c-19,8.9-39.5,27.4-51.9,39.7&#10;&#9;&#9;&#9;c-24.8,24.7-46.8,53.4-56.2,73.3c-11.2,23.7-16.2,60.3-0.8,84.7c9.1,14.3,23.6,21.9,42.2,21.9c4.6,0,9.5-0.5,14.6-1.4&#10;&#9;&#9;&#9;c16.1-3,30.1-16,41.9-34.3c1.4,1.8,2.8,3.7,4.2,5.5c0.1,0.1,0.1,0.2,0.2,0.3c20.3,26,45.6,50.1,47.2,51.6c1.5,1.4,3.5,2.2,5.5,2.2&#10;&#9;&#9;&#9;c2,0,3.9-0.7,5.5-2.2c1.6-1.5,27-25.7,47.3-51.7c0.1-0.1,0.2-0.2,0.2-0.3c2.7-3.5,5.3-7,7.8-10.5c12.4,20.9,27.5,36.1,45.1,39.3&#10;&#9;&#9;&#9;c5.1,0.9,10,1.4,14.6,1.4c0,0,0,0,0,0c18.6,0,33.1-7.6,42.2-21.8c15.4-24.4,10.4-61-0.8-84.7C424.3,680.3,402.2,651.6,377.4,626.9&#10;&#9;&#9;&#9;z M244.8,626.3c-3.5-0.6-6.5-1.3-9-2c2.1-5.3,4.1-10,5.7-13.7c0.7-1.6,0.8-3.5,0.4-5.2c0-0.1-0.7-2.9-1.1-7&#10;&#9;&#9;&#9;c1.3-0.3,2.5-0.4,3.6-0.4c0.5,0,0.9,0,1.3,0.1C246.7,602.4,246.4,612.7,244.8,626.3z M230.1,639.2c3.2,0.9,7.4,1.9,12.4,2.8&#10;&#9;&#9;&#9;c-1.6,9.6-3.7,20.2-6.3,31.3c-7-0.9-12.6-2-16.6-3C222.9,659.6,226.5,648.9,230.1,639.2z M258.4,644c3.5,0.2,7.1,0.4,11,0.4&#10;&#9;&#9;&#9;c7,0,14.6-0.5,22.6-1.6c1.5,9.5,3.6,20,6.2,30.9c-17.7,2-33.2,2-46.1,1.1C254.7,664,256.8,653.5,258.4,644z M211.5,734.7&#10;&#9;&#9;&#9;c1.3,0.2,2.8,0.4,4.3,0.6c-0.7,1.5-1.4,3.1-2.1,4.6C212.9,738.1,212.2,736.4,211.5,734.7z M209.7,718.3c0.5-9.4,2.6-20.7,5.6-32.6&#10;&#9;&#9;&#9;c4.1,1,9.8,2.2,16.8,3.2c-2.9,10.4-6.3,21-10.1,31.2C217,719.4,212.8,718.8,209.7,718.3z M248.1,690.6c6.1,0.5,12.7,0.8,19.9,0.8&#10;&#9;&#9;&#9;c10.3,0,21.7-0.6,34.1-2.1c3,11,6.4,22.2,10.4,33c-26,2.9-53.5,1.6-74.3-0.4C241.9,711.6,245.2,701,248.1,690.6z M317.9,687&#10;&#9;&#9;&#9;c3.4-0.6,6.9-1.2,10.4-2c3.2,12.4,5.4,24.2,5.8,33.8c-1.9,0.4-3.7,0.8-5.6,1.2C324.5,709.1,320.9,698,317.9,687z M314,671.5&#10;&#9;&#9;&#9;c-2.7-11.3-4.7-22-6.3-31.8c1.9-0.5,3.8-1,5.7-1.5c3.6,9.7,7.3,20.5,10.6,31.4C320.6,670.4,317.3,671,314,671.5z M304.8,616.4&#10;&#9;&#9;&#9;c0.9,2.1,1.8,4.5,2.8,6.9c-0.7,0.2-1.4,0.4-2.1,0.6C305.3,621.3,305,618.8,304.8,616.4z M245.9,573.9c5-7.5,13.7-12.1,26-13.9&#10;&#9;&#9;&#9;c12.2,1.8,21,6.5,26,13.9c1.8,2.7,3.1,5.6,3.9,8.6c-1.7,0.3-3.3,0.7-4.8,1.3c-5.8,2.4-10.8,9-7.4,41.2c0.1,0.7,0.1,1.3,0.2,2&#10;&#9;&#9;&#9;c-10.8,1.5-20.7,1.7-29.2,1.1c0.1-1.1,0.2-2.1,0.4-3.1c3.4-32.2-1.6-38.9-7.4-41.2c-2.8-1.1-5.9-1.7-9.2-1.7c-0.7,0-1.5,0-2.2,0.1&#10;&#9;&#9;&#9;C242.9,579.3,244.2,576.5,245.9,573.9z M170,789.7c-4.1,0.8-8.1,1.1-11.7,1.1c-13,0-22.7-4.9-28.8-14.5&#10;&#9;&#9;&#9;c-10.3-16.3-9.6-45.5,1.8-69.4c8.5-18,29.9-45.7,53.1-68.8c15.1-15,29.5-26.6,41.2-33.4c0.1,0.7,0.2,1.3,0.3,1.9&#10;&#9;&#9;&#9;c-6.5,15.3-32.9,79.8-31.9,117.8c0,0.6,0,1.2,0.1,1.8c0.3,5,1,9.5,2.4,13.3c1.9,5.3,5,11.2,8.7,17.2&#10;&#9;&#9;&#9;C193.7,776.2,181.7,787.6,170,789.7z M271.9,811.6c-6.1-6.1-16.6-16.7-27.2-28.8c8.4,0.9,18.7,1.7,30,1.7c7.6,0,15.7-0.4,23.9-1.3&#10;&#9;&#9;&#9;C288.2,795.1,277.9,805.6,271.9,811.6z M314,764.6c-35,7.7-73.7,1.7-84.2-0.1c-2.2-2.9-4.3-5.7-6.2-8.5c3.1-5.9,6-12.2,8.7-18.7&#10;&#9;&#9;&#9;c13.4,1.4,29.8,2.6,47.2,2.6c12.8,0,26.1-0.7,39.1-2.3c1.8,4.3,3.7,8.5,5.7,12.6C321.2,754.9,317.7,759.8,314,764.6z M421.1,776.4&#10;&#9;&#9;&#9;c-6.1,9.6-15.8,14.5-28.8,14.5c-3.6,0-7.6-0.4-11.7-1.1c-12.8-2.3-26-15.8-38.4-38.9c2.1-3.9,3.9-7.7,5.2-11.2&#10;&#9;&#9;&#9;c1.3-3.7,2.1-8,2.4-12.7c0.2-1,0.3-2,0.1-3c0.7-38.1-25.5-102-32-117.2c0.3-1.4,0.5-3.1,0.8-5.2c12.6,5.9,29.6,18.9,47.5,36.7&#10;&#9;&#9;&#9;c23.2,23.1,44.5,50.8,53.1,68.8C430.6,730.9,431.4,760.1,421.1,776.4z" style="fill: rgb(89, 74, 66);" transform="matrix(1, 0, 0, 1, -80.3636337508841, -513.0908924094906)"/>

</svg>